<svg width="19" height="21" viewBox="0 0 19 21" fill="none" xmlns="http://www.w3.org/2000/svg">
<path d="M15.5 14.5644C14.74 14.5644 14.06 14.8644 13.54 15.3344L6.41 11.1844C6.46 10.9544 6.5 10.7244 6.5 10.4844C6.5 10.2444 6.46 10.0144 6.41 9.78438L13.46 5.67438C14 6.17438 14.71 6.48438 15.5 6.48438C17.16 6.48438 18.5 5.14437 18.5 3.48438C18.5 1.82438 17.16 0.484375 15.5 0.484375C13.84 0.484375 12.5 1.82438 12.5 3.48438C12.5 3.72438 12.54 3.95437 12.59 4.18437L5.54 8.29438C5 7.79438 4.29 7.48438 3.5 7.48438C1.84 7.48438 0.5 8.82438 0.5 10.4844C0.5 12.1444 1.84 13.4844 3.5 13.4844C4.29 13.4844 5 13.1744 5.54 12.6744L12.66 16.8344C12.61 17.0444 12.58 17.2644 12.58 17.4844C12.58 19.0944 13.89 20.4044 15.5 20.4044C17.11 20.4044 18.42 19.0944 18.42 17.4844C18.42 15.8744 17.11 14.5644 15.5 14.5644ZM15.5 2.48438C16.05 2.48438 16.5 2.93438 16.5 3.48438C16.5 4.03437 16.05 4.48438 15.5 4.48438C14.95 4.48438 14.5 4.03437 14.5 3.48438C14.5 2.93438 14.95 2.48438 15.5 2.48438ZM3.5 11.4844C2.95 11.4844 2.5 11.0344 2.5 10.4844C2.5 9.93437 2.95 9.48438 3.5 9.48438C4.05 9.48438 4.5 9.93437 4.5 10.4844C4.5 11.0344 4.05 11.4844 3.5 11.4844ZM15.5 18.5044C14.95 18.5044 14.5 18.0544 14.5 17.5044C14.5 16.9544 14.95 16.5044 15.5 16.5044C16.05 16.5044 16.5 16.9544 16.5 17.5044C16.5 18.0544 16.05 18.5044 15.5 18.5044Z" fill="white"/>
</svg>
